<?xml version="1.0" encoding="UTF-8"?><svg id="Layer_2" xmlns="http://www.w3.org/2000/svg" viewBox="0 0 311.04 147.73"><defs><style>.cls-1{fill:#e4c600;}.cls-1,.cls-2{stroke-width:0px;}.cls-2{fill:#fff;}</style></defs><g id="Layer_1-2"><path class="cls-2" d="M304.84,49.13c-3.08,5.74-7.24,12.01-11.04,12.44-2.93.34-5.61-1.8-4.39-9.13,2.85-13.3,6.04-20.23,5.44-25.56-.48-4.05-2.68-5.34-6.36-4.93-6.47.74-10.64,10.35-13.94,27.56-1.36,6.19-4.13,9.98-9.72,10.61-4.17.48-5.57-1.54-5.97-5.1-.85-7.48,3.88-16.63,2.94-24.88-.39-3.3-1.72-4.94-4.51-4.62-7.1.82-11.78,11.63-15.51,30.81,0,.02,0,.04,0,.06-2.08,4.32-4.96,7.07-9.26,7.57-5.57.63-7.56-4.28-4.3-14.04l10.13-38.3c2.48-7.61.17-12.09-4.28-11.58-3.8.43-8.25,3.13-11.73,15.34-3.96,13.69-3.16,20.67-5.19,20.91-3.3.37-3.5-5.77-13.64-4.62-15.74,1.8-24.18,16.82-26.88,32.1,0,0-.01.01-.02.02-2.11,4.1-4.22,7.04-8.02,7.47-4.19.49-6.31-1.32-6.81-5.64-.72-6.34,2.86-10.87,2.09-17.6-.72-6.33-5-11.24-12.75-10.36-5.57.65-10.35,3.88-14.52,8.99-3.59,4.53-6.3,3.3-6.87-1.66-.29-2.54-1.31-4.73-4.74-4.34-4.7.54-9.45,15.09-11.95,30.41,0,.02,0,.04,0,.07-2,3.91-5.99,5.9-9.77,6.32-4.82.55-6.9-2.94-7.48-8.15-.55-4.82.49-11.36,1.42-16.86,1.97-10.76,4.68-15.18,7.22-15.48,1.76-.34,3.19.92,4.84.72,5.33-.6,8.75-7.81,7.95-15.94-.8-6.98-5.61-11.95-14.49-10.93-13.95,1.59-29.5,12.75-44.83,49.71-.91,2.17-1.83,4.2-2.76,6.24-5.14-3.4-8.16-8.45-8.9-14.92-1.06-9.27,4.37-12.32,9.38-12.38,1.94.03,2.79-1.48,2.45-3.37-.68-5.96-5.68-11.43-15.32-10.32-10.78,1.23-19.57,9.69-18.06,23.01,1.46,12.69,10.83,22.67,24.64,27.76-4.94,7.25-11.19,12.21-19.06,13.1-6.98.8-12.86-2.39-13.5-7.96-.09-.89-1.06-1.42-2.08-1.31-10.15,1.17-15.69,12.21-14.51,22.61,1.2,10.53,9.42,20.51,26.79,18.52,13.71-1.56,24.95-16.72,31.98-32.82,1.22-2.85,2.4-5.93,3.62-8.78,4.94.6,10.24.75,15.72.39-.18,4-.15,7.61.2,10.78,1.19,10.39,5.47,18.52,14.48,17.49,8.74-1,14.52-8.16,18.53-15.92.06,1.6.15,3.09.3,4.39.6,5.33,4.36,8.89,10.32,8.21,8.75-1,9.61-8.18,8.87-14.64l-.66-5.7c-1.28-11.3,3.85-22.56,11.21-23.39,2.93-.34,4.99.97,5.33,3.88.6,5.2-3.76,14.32-2.66,23.96.82,7.1,4.31,12.87,12.3,11.95,9.69-1.11,15.75-9.78,19.78-18.46,1.61,9.08,6.88,15.41,16.23,14.35,7.73-.89,14.15-9.98,18.17-20.85l.51-.05c-.18,10.69,4.91,18.2,13.03,17.26,8.3-.94,13.34-8.49,17.08-17.08,1.2,9.42,7.33,13.01,14.1,12.23,8.25-.94,13.87-6.85,16.32-15.74.91-3.31,3.53-2.97,3.59-.15.02,12.47-8.19,23.95-19.34,25.35-7.85,1.02-13.04-2.88-14.41-9.15-.54-2.51-8.92,4.1-7.42,17.05,1.39,12.17,9.86,18.79,23.3,17.25,14.07-1.6,21.71-12.38,26.86-39.44,1.22,1.66,2.85,2.49,4.76,2.28,12.3-1.4,16.29-18.19,21.88-34.49,1.06-3.08-4.79-4.85-6.07-2.53ZM79.2,71.45c-4.85.29-9.24.15-13.06-.57,3.63-8.76,7.28-17.28,11.61-24.45,3.17-4.73,4.6-5.79,6.25-5.99.89-.09,1.57.34,1.72,1.6.59,5.2-3.5,11.07-6.53,29.41ZM201.05,69.61c-4.82.55-6.96-2.42-7.39-6.1-.63-5.59,2.85-12.27,9.05-12.98,4.96-.57,7.33,2.25,7.75,5.91.62,5.33-3.06,12.44-9.41,13.17Z"/><path class="cls-1" d="M63.23,147.2c-20.54,1.71-43.42.05-58.78-15.34-1.31-1.08-4.19-4.16-2.13-3.65,2.62,1.23,5.68,3.99,8.55,4.36,11.29,2.71,23.11,1.57,34.56.57,35.23-4.42,69.88-12.58,105.1-17.28,18.19-2.31,36.56-5.61,54.9-5.24,6.85,2.43,12.66,7.73,17.39,13.14,3.82,4.3-1.45,3.99-4.6,4.53-6.51.82-13.06,1.28-19.59,1.88-45.4,3.46-90.1,12.64-135.39,17.03Z"/></g></svg>